<svg width="264" height="269" viewBox="0 0 264 269" fill="none" xmlns="http://www.w3.org/2000/svg">
<g filter="url(#filter0_d_8_54)">
<circle cx="132" cy="133" r="128" fill="#636363"/>
</g>
<circle cx="132" cy="124" r="120" fill="#00D57C"/>
<circle cx="132" cy="120" r="120" fill="#00FF95"/>
<path d="M219 125.804C223 128.113 223 133.887 219 136.196L141 181.229C137 183.539 132 180.652 132 176.033V85.9667C132 81.3479 137 78.4611 141 80.7705L219 125.804Z" fill="#007B48"/>
<path d="M155 125.804C159 128.113 159 133.887 155 136.196L77 181.229C73 183.539 68 180.652 68 176.033V85.9667C68 81.3479 73 78.4611 77 80.7705L155 125.804Z" fill="#007B48"/>
<defs>
<filter id="filter0_d_8_54" x="0" y="5" width="264" height="264" filterUnits="userSpaceOnUse" color-interpolation-filters="sRGB">
<feFlood flood-opacity="0" result="BackgroundImageFix"/>
<feColorMatrix in="SourceAlpha" type="matrix" values="0 0 0 0 0 0 0 0 0 0 0 0 0 0 0 0 0 0 127 0" result="hardAlpha"/>
<feOffset dy="4"/>
<feGaussianBlur stdDeviation="2"/>
<feComposite in2="hardAlpha" operator="out"/>
<feColorMatrix type="matrix" values="0 0 0 0 0 0 0 0 0 0 0 0 0 0 0 0 0 0 0.25 0"/>
<feBlend mode="normal" in2="BackgroundImageFix" result="effect1_dropShadow_8_54"/>
<feBlend mode="normal" in="SourceGraphic" in2="effect1_dropShadow_8_54" result="shape"/>
</filter>
</defs>
</svg>
