<svg width="264" height="278" viewBox="0 0 264 278" fill="none" xmlns="http://www.w3.org/2000/svg">
<g filter="url(#filter0_d_8_44)">
<circle cx="132" cy="142" r="128" fill="#636363"/>
</g>
<circle cx="132" cy="133" r="120" fill="#00D57C"/>
<circle cx="132" cy="120" r="120" fill="#00FF95"/>
<path d="M219 129.804C223 132.113 223 137.887 219 140.196L141 185.229C137 187.539 132 184.652 132 180.033V89.9667C132 85.3479 137 82.4611 141 84.7705L219 129.804Z" fill="#007B48"/>
<path d="M155 129.804C159 132.113 159 137.887 155 140.196L77 185.229C73 187.539 68 184.652 68 180.033V89.9667C68 85.3479 73 82.4611 77 84.7705L155 129.804Z" fill="#007B48"/>
<defs>
<filter id="filter0_d_8_44" x="0" y="14" width="264" height="264" filterUnits="userSpaceOnUse" color-interpolation-filters="sRGB">
<feFlood flood-opacity="0" result="BackgroundImageFix"/>
<feColorMatrix in="SourceAlpha" type="matrix" values="0 0 0 0 0 0 0 0 0 0 0 0 0 0 0 0 0 0 127 0" result="hardAlpha"/>
<feOffset dy="4"/>
<feGaussianBlur stdDeviation="2"/>
<feComposite in2="hardAlpha" operator="out"/>
<feColorMatrix type="matrix" values="0 0 0 0 0 0 0 0 0 0 0 0 0 0 0 0 0 0 0.25 0"/>
<feBlend mode="normal" in2="BackgroundImageFix" result="effect1_dropShadow_8_44"/>
<feBlend mode="normal" in="SourceGraphic" in2="effect1_dropShadow_8_44" result="shape"/>
</filter>
</defs>
</svg>
