<svg width="264" height="278" viewBox="0 0 264 278" fill="none" xmlns="http://www.w3.org/2000/svg">
<g filter="url(#filter0_d_8_77)">
<circle cx="132" cy="142" r="128" fill="#636363"/>
</g>
<circle cx="132" cy="133" r="120" fill="#00D57C"/>
<circle cx="132" cy="120" r="120" fill="#00FF95"/>
<path d="M45 140.196C41 137.887 41 132.113 45 129.804L123 84.7705C127 82.4611 132 85.3479 132 89.9667V180.033C132 184.652 127 187.539 123 185.229L45 140.196Z" fill="#007B48"/>
<path d="M109 140.196C105 137.887 105 132.113 109 129.804L187 84.7705C191 82.4611 196 85.3479 196 89.9667V180.033C196 184.652 191 187.539 187 185.229L109 140.196Z" fill="#007B48"/>
<defs>
<filter id="filter0_d_8_77" x="0" y="14" width="264" height="264" filterUnits="userSpaceOnUse" color-interpolation-filters="sRGB">
<feFlood flood-opacity="0" result="BackgroundImageFix"/>
<feColorMatrix in="SourceAlpha" type="matrix" values="0 0 0 0 0 0 0 0 0 0 0 0 0 0 0 0 0 0 127 0" result="hardAlpha"/>
<feOffset dy="4"/>
<feGaussianBlur stdDeviation="2"/>
<feComposite in2="hardAlpha" operator="out"/>
<feColorMatrix type="matrix" values="0 0 0 0 0 0 0 0 0 0 0 0 0 0 0 0 0 0 0.25 0"/>
<feBlend mode="normal" in2="BackgroundImageFix" result="effect1_dropShadow_8_77"/>
<feBlend mode="normal" in="SourceGraphic" in2="effect1_dropShadow_8_77" result="shape"/>
</filter>
</defs>
</svg>
