<svg width="512" height="261" viewBox="0 0 512 261" fill="none" xmlns="http://www.w3.org/2000/svg">
<path d="M256 133C256 203.692 198.692 261 128 261C57.3075 261 0 203.692 0 133C0 62.3075 57.3075 5 128 5C198.692 5 256 62.3075 256 133Z" fill="#636363"/>
<path d="M512 133C512 203.692 454.692 261 384 261C313.308 261 256 203.692 256 133C256 62.3075 313.308 5 384 5C454.692 5 512 62.3075 512 133Z" fill="#636363"/>
<path d="M128 21H384V261H128V21Z" fill="#636363"/>
<path d="M128 4H384V244H128V4Z" fill="#00D57C"/>
<path d="M248 124C248 190.274 194.274 244 128 244C61.7258 244 8 190.274 8 124C8 57.7258 61.7258 4 128 4C194.274 4 248 57.7258 248 124Z" fill="#00D57C"/>
<path d="M504 124C504 190.274 450.274 244 384 244C317.726 244 264 190.274 264 124C264 57.7258 317.726 4 384 4C450.274 4 504 57.7258 504 124Z" fill="#00D57C"/>
<path d="M128 0H384V240H128V0Z" fill="#00FF95"/>
<path d="M248 120C248 186.274 194.274 240 128 240C61.7258 240 8 186.274 8 120C8 53.7258 61.7258 0 128 0C194.274 0 248 53.7258 248 120Z" fill="#00FF95"/>
<path d="M504 120C504 186.274 450.274 240 384 240C317.726 240 264 186.274 264 120C264 53.7258 317.726 0 384 0C450.274 0 504 53.7258 504 120Z" fill="#00FF95"/>
</svg>
