<svg width="512" height="270" viewBox="0 0 512 270" fill="none" xmlns="http://www.w3.org/2000/svg">
<path d="M256 142C256 212.692 198.692 270 128 270C57.3075 270 0 212.692 0 142C0 71.3075 57.3075 14 128 14C198.692 14 256 71.3075 256 142Z" fill="#636363"/>
<path d="M512 142C512 212.692 454.692 270 384 270C313.308 270 256 212.692 256 142C256 71.3075 313.308 14 384 14C454.692 14 512 71.3075 512 142Z" fill="#636363"/>
<path d="M128 30H384V270H128V30Z" fill="#636363"/>
<path d="M128 13H384V253H128V13Z" fill="#00D57C"/>
<path d="M248 133C248 199.274 194.274 253 128 253C61.7258 253 8 199.274 8 133C8 66.7258 61.7258 13 128 13C194.274 13 248 66.7258 248 133Z" fill="#00D57C"/>
<path d="M504 133C504 199.274 450.274 253 384 253C317.726 253 264 199.274 264 133C264 66.7258 317.726 13 384 13C450.274 13 504 66.7258 504 133Z" fill="#00D57C"/>
<path d="M128 0H384V240H128V0Z" fill="#00FF95"/>
<path d="M248 120C248 186.274 194.274 240 128 240C61.7258 240 8 186.274 8 120C8 53.7258 61.7258 0 128 0C194.274 0 248 53.7258 248 120Z" fill="#00FF95"/>
<path d="M504 120C504 186.274 450.274 240 384 240C317.726 240 264 186.274 264 120C264 53.7258 317.726 0 384 0C450.274 0 504 53.7258 504 120Z" fill="#00FF95"/>
</svg>
